<svg width="32" height="33" viewBox="0 0 32 33" fill="none" xmlns="http://www.w3.org/2000/svg">
<path d="M15.9997 5.83435C17.4142 5.83435 18.7707 6.39667 19.7709 7.39762C20.7711 8.39856 21.333 9.75613 21.333 11.1717C21.333 12.5872 20.7711 13.9448 19.7709 14.9457C18.7707 15.9467 17.4142 16.509 15.9997 16.509C14.5852 16.509 13.2286 15.9467 12.2284 14.9457C11.2282 13.9448 10.6663 12.5872 10.6663 11.1717C10.6663 9.75613 11.2282 8.39856 12.2284 7.39762C13.2286 6.39667 14.5852 5.83435 15.9997 5.83435ZM15.9997 19.1777C21.893 19.1777 26.6663 21.5661 26.6663 24.515V27.1837H5.33301V24.515C5.33301 21.5661 10.1063 19.1777 15.9997 19.1777Z" fill="white"/>
</svg>
