<svg width="699" height="195" viewBox="0 0 699 195" fill="none" xmlns="http://www.w3.org/2000/svg">
<path d="M0.6875 30.085H26.8746V194.425H0.6875V30.085Z" fill="#5348E4"/>
<path d="M75.2583 36.8578H101.445V194.425H75.2583V36.8578Z" fill="#5348E4"/>
<path d="M149.83 82.873H176.017V194.425H149.83V82.873Z" fill="#5348E4"/>
<path d="M224.4 22.9138H250.588V194.425H224.4V22.9138Z" fill="#5348E4"/>
<path d="M298.971 173.907H325.158V194.425H298.971V173.907Z" fill="#5348E4"/>
<path d="M373.542 0.404205H399.73V194.425H373.542V0.404205Z" fill="#5348E4"/>
<path d="M448.113 70.3234H474.3V194.425H448.113V70.3234Z" fill="#5348E4"/>
<path d="M522.684 12.5554H548.871V194.425H522.684V12.5554Z" fill="#5348E4"/>
<path d="M597.255 171.517H623.442V194.425H597.255V171.517Z" fill="#5348E4"/>
<path d="M671.826 139.645H698.013V194.425H671.826V139.645Z" fill="#5348E4"/>
</svg>
