<svg width="698" height="163" viewBox="0 0 698 163" fill="none" xmlns="http://www.w3.org/2000/svg">
<path d="M0.512695 39.3194H26.6998V162.425H0.512695V39.3194Z" fill="#74BE63"/>
<path d="M75.0835 134.736H101.271V162.425H75.0835V134.736Z" fill="#74BE63"/>
<path d="M149.655 77.1674H175.842V162.425H149.655V77.1674Z" fill="#74BE63"/>
<path d="M224.226 143.7H250.413V162.425H224.226V143.7Z" fill="#74BE63"/>
<path d="M298.796 0.0769958H324.984V162.425H298.796V0.0769958Z" fill="#74BE63"/>
<path d="M373.368 54.0602H399.555V162.425H373.368V54.0602Z" fill="#74BE63"/>
<path d="M447.938 129.159H474.126V162.425H447.938V129.159Z" fill="#74BE63"/>
<path d="M522.509 103.86H548.696V162.425H522.509V103.86Z" fill="#74BE63"/>
<path d="M597.081 23.981H623.268V162.425H597.081V23.981Z" fill="#74BE63"/>
<path d="M671.651 101.47H697.838V162.425H671.651V101.47Z" fill="#74BE63"/>
</svg>
