<svg width="742" height="202" viewBox="0 0 742 202" fill="none" xmlns="http://www.w3.org/2000/svg">
<path d="M3.79053 156.244L85.3541 167.856L166.918 51.5468L248.481 3.7244L330.045 197.769L411.608 141.878L493.172 134.006L574.735 142.075L656.299 85.9868L737.862 181.238V198.95H656.299H574.735H493.172H411.608H330.045H248.481H166.918H85.3541H3.79053V156.244Z" fill="#3867BC" fill-opacity="0.6"/>
<path d="M3.79054 159.934C5.82441 159.934 7.47318 158.282 7.47318 156.244C7.47318 154.206 5.82441 152.554 3.79054 152.554C1.75668 152.554 0.10791 154.206 0.10791 156.244C0.10791 158.282 1.75668 159.934 3.79054 159.934Z" fill="#3867BC" fill-opacity="0.6"/>
<path d="M85.354 171.546C87.3879 171.546 89.0367 169.894 89.0367 167.856C89.0367 165.818 87.3879 164.166 85.354 164.166C83.3202 164.166 81.6714 165.818 81.6714 167.856C81.6714 169.894 83.3202 171.546 85.354 171.546Z" fill="#3867BC" fill-opacity="0.6"/>
<path d="M166.917 55.2368C168.951 55.2368 170.6 53.5847 170.6 51.5468C170.6 49.5089 168.951 47.8568 166.917 47.8568C164.884 47.8568 163.235 49.5089 163.235 51.5468C163.235 53.5847 164.884 55.2368 166.917 55.2368Z" fill="#3867BC" fill-opacity="0.6"/>
<path d="M248.481 7.4144C250.515 7.4144 252.164 5.76233 252.164 3.7244C252.164 1.68647 250.515 0.0344009 248.481 0.0344009C246.447 0.0344009 244.798 1.68647 244.798 3.7244C244.798 5.76233 246.447 7.4144 248.481 7.4144Z" fill="#3867BC" fill-opacity="0.6"/>
<path d="M330.045 201.459C332.079 201.459 333.728 199.807 333.728 197.769C333.728 195.731 332.079 194.079 330.045 194.079C328.011 194.079 326.362 195.731 326.362 197.769C326.362 199.807 328.011 201.459 330.045 201.459Z" fill="#3867BC" fill-opacity="0.6"/>
<path d="M411.608 145.568C413.642 145.568 415.291 143.916 415.291 141.878C415.291 139.84 413.642 138.188 411.608 138.188C409.575 138.188 407.926 139.84 407.926 141.878C407.926 143.916 409.575 145.568 411.608 145.568Z" fill="#3867BC" fill-opacity="0.6"/>
<path d="M493.172 137.696C495.206 137.696 496.855 136.044 496.855 134.006C496.855 131.968 495.206 130.316 493.172 130.316C491.138 130.316 489.489 131.968 489.489 134.006C489.489 136.044 491.138 137.696 493.172 137.696Z" fill="#3867BC" fill-opacity="0.6"/>
<path d="M574.735 145.765C576.769 145.765 578.418 144.113 578.418 142.075C578.418 140.037 576.769 138.385 574.735 138.385C572.702 138.385 571.053 140.037 571.053 142.075C571.053 144.113 572.702 145.765 574.735 145.765Z" fill="#3867BC" fill-opacity="0.6"/>
<path d="M656.299 89.6768C658.333 89.6768 659.981 88.0247 659.981 85.9868C659.981 83.9489 658.333 82.2968 656.299 82.2968C654.265 82.2968 652.616 83.9489 652.616 85.9868C652.616 88.0247 654.265 89.6768 656.299 89.6768Z" fill="#3867BC" fill-opacity="0.6"/>
<path d="M737.862 184.928C739.896 184.928 741.545 183.276 741.545 181.238C741.545 179.2 739.896 177.548 737.862 177.548C735.828 177.548 734.18 179.2 734.18 181.238C734.18 183.276 735.828 184.928 737.862 184.928Z" fill="#3867BC" fill-opacity="0.6"/>
</svg>
