<svg width="742" height="187" viewBox="0 0 742 187" fill="none" xmlns="http://www.w3.org/2000/svg">
<path d="M3.79053 32.2652L85.3541 151.132L166.918 140.899L248.481 75.1676L330.045 3.7292L411.608 73.9868L493.172 120.628L574.735 139.324L656.299 52.9292L737.862 13.3724V186.95H656.299H574.735H493.172H411.608H330.045H248.481H166.918H85.3541H3.79053V32.2652Z" fill="#6C03FB" fill-opacity="0.6"/>
<path d="M3.79054 35.9552C5.82441 35.9552 7.47318 34.3031 7.47318 32.2652C7.47318 30.2273 5.82441 28.5752 3.79054 28.5752C1.75668 28.5752 0.10791 30.2273 0.10791 32.2652C0.10791 34.3031 1.75668 35.9552 3.79054 35.9552Z" fill="#6C03FB" fill-opacity="0.6"/>
<path d="M85.354 154.822C87.3879 154.822 89.0367 153.17 89.0367 151.132C89.0367 149.094 87.3879 147.442 85.354 147.442C83.3202 147.442 81.6714 149.094 81.6714 151.132C81.6714 153.17 83.3202 154.822 85.354 154.822Z" fill="#6C03FB" fill-opacity="0.6"/>
<path d="M166.917 144.589C168.951 144.589 170.6 142.937 170.6 140.899C170.6 138.861 168.951 137.209 166.917 137.209C164.884 137.209 163.235 138.861 163.235 140.899C163.235 142.937 164.884 144.589 166.917 144.589Z" fill="#6C03FB" fill-opacity="0.6"/>
<path d="M248.481 78.8576C250.515 78.8576 252.164 77.2055 252.164 75.1676C252.164 73.1297 250.515 71.4776 248.481 71.4776C246.447 71.4776 244.798 73.1297 244.798 75.1676C244.798 77.2055 246.447 78.8576 248.481 78.8576Z" fill="#6C03FB" fill-opacity="0.6"/>
<path d="M330.045 7.4192C332.079 7.4192 333.728 5.76713 333.728 3.7292C333.728 1.69127 332.079 0.0391998 330.045 0.0391998C328.011 0.0391998 326.362 1.69127 326.362 3.7292C326.362 5.76713 328.011 7.4192 330.045 7.4192Z" fill="#6C03FB" fill-opacity="0.6"/>
<path d="M411.608 77.6768C413.642 77.6768 415.291 76.0247 415.291 73.9868C415.291 71.9489 413.642 70.2968 411.608 70.2968C409.575 70.2968 407.926 71.9489 407.926 73.9868C407.926 76.0247 409.575 77.6768 411.608 77.6768Z" fill="#6C03FB" fill-opacity="0.6"/>
<path d="M493.172 124.318C495.206 124.318 496.855 122.666 496.855 120.628C496.855 118.59 495.206 116.938 493.172 116.938C491.138 116.938 489.489 118.59 489.489 120.628C489.489 122.666 491.138 124.318 493.172 124.318Z" fill="#6C03FB" fill-opacity="0.6"/>
<path d="M574.735 143.014C576.769 143.014 578.418 141.362 578.418 139.324C578.418 137.286 576.769 135.634 574.735 135.634C572.702 135.634 571.053 137.286 571.053 139.324C571.053 141.362 572.702 143.014 574.735 143.014Z" fill="#6C03FB" fill-opacity="0.6"/>
<path d="M656.299 56.6192C658.333 56.6192 659.981 54.9671 659.981 52.9292C659.981 50.8913 658.333 49.2392 656.299 49.2392C654.265 49.2392 652.616 50.8913 652.616 52.9292C652.616 54.9671 654.265 56.6192 656.299 56.6192Z" fill="#6C03FB" fill-opacity="0.6"/>
<path d="M737.862 17.0624C739.896 17.0624 741.545 15.4103 741.545 13.3724C741.545 11.3345 739.896 9.6824 737.862 9.6824C735.828 9.6824 734.18 11.3345 734.18 13.3724C734.18 15.4103 735.828 17.0624 737.862 17.0624Z" fill="#6C03FB" fill-opacity="0.6"/>
</svg>
