<svg width="271" height="229" viewBox="0 0 271 229" fill="none" xmlns="http://www.w3.org/2000/svg">
<path d="M37.7958 1.06653C23.0159 16.7002 12.1982 35.6486 6.24916 56.3238C0.300075 76.999 -0.607152 98.7989 3.6035 119.897C7.81416 140.995 17.0201 160.777 30.4498 177.584C43.8796 194.392 61.142 207.736 80.7908 216.499C100.44 225.261 121.902 229.187 143.381 227.947C164.859 226.707 185.727 220.338 204.237 209.372C222.747 198.407 238.359 183.164 249.765 164.923C261.172 146.681 268.04 125.972 269.795 104.529L137.299 93.6866C137.277 93.9547 137.191 94.2135 137.048 94.4416C136.906 94.6696 136.711 94.8601 136.479 94.9972C136.248 95.1342 135.987 95.2139 135.719 95.2294C135.45 95.2449 135.182 95.1958 134.936 95.0863C134.691 94.9767 134.475 94.8099 134.307 94.5998C134.139 94.3897 134.024 94.1425 133.971 93.8787C133.919 93.615 133.93 93.3425 134.004 93.0841C134.079 92.8256 134.214 92.5888 134.399 92.3934L37.7958 1.06653Z" fill="#5CB1E6" stroke="white"/>
</svg>
